<?xml version="1.0" standalone="no"?>
<!DOCTYPE svg PUBLIC "-//W3C//DTD SVG 20010904//EN"
 "http://www.w3.org/TR/2001/REC-SVG-20010904/DTD/svg10.dtd">
<svg version="1.0" xmlns="http://www.w3.org/2000/svg"
 width="740.000000pt" height="740.000000pt" viewBox="0 0 740.000000 740.000000"
 preserveAspectRatio="xMidYMid meet">
<metadata>
Created by potrace 1.14, written by Peter Selinger 2001-2017
</metadata>
<g transform="translate(0.000000,740.000000) scale(0.100000,-0.100000)"
fill="#000000" stroke="none">
<path d="M3035 7293 c-170 -58 -311 -106 -313 -108 -1 -1 15 -40 36 -86 185
-396 379 -955 575 -1659 46 -165 105 -385 112 -418 10 -46 64 -244 67 -248 6
-5 669 215 681 226 9 8 -9 79 -90 365 -224 793 -440 1393 -686 1908 -33 70
-63 127 -66 126 -3 0 -145 -48 -316 -106z"/>
<path d="M5939 7158 c-1 -13 -3 -34 -4 -48 -1 -14 -5 -70 -9 -125 -4 -55 -9
-116 -11 -135 -2 -19 -6 -71 -10 -114 -4 -44 -8 -87 -10 -95 -1 -9 -6 -54 -9
-101 -4 -47 -9 -96 -11 -110 -4 -23 -11 -82 -20 -175 -2 -22 -7 -62 -11 -90
-4 -27 -8 -59 -10 -70 -16 -127 -35 -265 -38 -285 -3 -14 -7 -47 -11 -74 -3
-27 -8 -52 -9 -55 -2 -3 -6 -28 -10 -56 -6 -52 -7 -59 -31 -190 -8 -44 -17
-96 -20 -115 -3 -19 -24 -125 -46 -235 -23 -110 -43 -210 -45 -222 -31 -165
-181 -697 -264 -938 -99 -286 -280 -696 -394 -890 -19 -33 -43 -73 -52 -90
-57 -100 -370 -548 -403 -575 -3 -3 -40 -45 -81 -95 -252 -300 -636 -663 -955
-901 -44 -32 -86 -65 -95 -71 -75 -62 -399 -274 -578 -378 -229 -133 -533
-284 -775 -383 l-88 -36 48 -50 c26 -27 53 -55 58 -61 21 -25 253 -273 310
-332 l60 -63 106 49 c581 267 1150 611 1584 960 39 31 72 58 75 61 3 3 25 21
50 41 48 39 49 40 177 152 97 85 412 402 498 501 33 38 69 80 80 92 52 59 220
270 270 341 134 189 345 512 345 528 0 2 22 41 48 87 208 362 434 943 588
1513 29 106 111 439 118 475 2 14 10 48 16 75 15 63 19 82 26 120 3 17 11 59
19 95 8 36 17 76 19 90 6 33 28 142 30 155 2 6 6 33 10 60 9 56 9 57 36 210
11 61 21 126 24 145 6 42 13 95 26 175 11 74 29 198 34 245 3 19 7 58 11 85 3
28 8 66 11 85 2 19 7 55 9 80 2 25 7 61 9 80 3 19 8 60 11 90 3 30 8 71 10 90
2 19 7 64 10 100 4 36 9 81 11 100 2 19 6 60 9 91 l6 57 -38 7 c-21 4 -49 9
-63 11 -14 3 -41 9 -60 14 -19 5 -46 11 -60 13 -14 3 -132 28 -262 56 -131 28
-245 51 -253 51 -9 0 -16 -10 -16 -22z"/>
<path d="M1260 6911 c-36 -15 -174 -72 -307 -126 l-241 -97 83 -162 c89 -171
204 -428 286 -635 27 -69 54 -135 59 -146 5 -11 18 -47 30 -80 11 -33 24 -69
29 -80 44 -103 255 -739 349 -1052 39 -127 74 -238 79 -246 7 -13 20 -11 93
15 47 16 198 68 335 115 138 47 254 89 259 94 10 9 10 8 -116 389 -137 418
-350 995 -445 1210 -11 25 -33 74 -48 110 -121 285 -345 721 -368 719 -7 0
-41 -13 -77 -28z"/>
</g>
</svg>
